<svg width="69" height="46" viewBox="0 0 69 46" fill="none" xmlns="http://www.w3.org/2000/svg">
  <!-- <rect x="0.97583" y="0.984131" width="67.6955" height="44.412" rx="10.0071" fill="black"/> -->
  <path d="M19.3969 22.2436L24.3495 16.1472H19.4928L16.0493 21.0639V16.1472H12.0789V29.2623H16.0493V25.6272L16.7799 24.6451L19.7263 29.2623H24.5651L19.3969 22.2436Z" fill="white"/>
  <path d="M29.2485 16.1472H25.278V29.2623H29.2485V16.1472Z" fill="white"/>
  <path d="M52.3942 22.2436L57.3528 16.1472H52.4961L49.0526 21.0639V16.1472H45.0822V29.2623H49.0526V25.6272L49.7832 24.6451L52.7296 29.2623H57.5684L52.3942 22.2436Z" fill="white"/>
  <path d="M34.8117 19.495C36.3208 17.9919 38.7702 17.9919 40.2733 19.495L41.5728 18.1895C39.7463 16.4169 36.77 16.4229 34.9435 18.1895C33.7757 19.3274 33.3505 20.9143 33.6799 22.3756C33.6379 21.3336 34.0152 20.2796 34.8057 19.4891L34.8117 19.495Z" fill="white"/>
  <path d="M37.5427 30.2266C39.2734 30.2266 40.9142 29.6337 42.2258 28.5378L39.7465 26.0585C39.5788 26.2921 38.6086 26.7412 37.351 26.7412C33.7159 26.6753 30.7815 23.8248 30.6677 20.3035C30.3623 21.1179 30.2006 21.9923 30.2006 22.8905C30.2006 24.8488 30.9612 26.6933 32.3505 28.0827C33.7399 29.466 35.5784 30.2326 37.5367 30.2326L37.5427 30.2266Z" fill="white"/>
  <path d="M43.1718 29.4842L44.1898 24.0525L38.7582 25.0706L39.7463 26.0587L42.2256 28.538L43.1718 29.4842Z" fill="#30D901"/>
</svg>
